<svg width="126" height="65" viewBox="0 0 126 65" fill="none" xmlns="http://www.w3.org/2000/svg">
<path d="M66.7106 53.2399C66.2345 53.4439 65.7221 53.5494 65.2042 53.5501C64.9074 53.5721 64.6096 53.5234 64.3354 53.4078C64.0611 53.2923 63.8183 53.1132 63.6268 52.8854C63.2917 52.3577 63.1334 51.7369 63.1749 51.1131C63.1108 50.412 63.3275 49.714 63.7774 49.1724C63.9875 48.9896 64.2324 48.8514 64.4975 48.7661C64.7625 48.6808 65.0421 48.6502 65.3194 48.6762C65.7272 48.6757 66.134 48.7173 66.5334 48.8003L66.4625 49.5712C66.1131 49.5228 65.7607 49.4991 65.408 49.5003C65.2362 49.4789 65.0618 49.4946 64.8966 49.5466C64.7314 49.5986 64.5794 49.6856 64.4509 49.8016C64.1901 50.1863 64.074 50.651 64.123 51.1131C64.1014 51.5104 64.1806 51.9067 64.3534 52.2651C64.4549 52.4202 64.5969 52.5443 64.7642 52.624C64.9314 52.7037 65.1173 52.7359 65.3016 52.7171C65.7005 52.7024 66.0948 52.6278 66.4714 52.4955L66.7106 53.2399Z" fill="white"/>
<path d="M67.1543 53.479V48.7204H70.1052V49.5268H68.0848V50.6345H69.7596V51.432H68.0848V52.6461H70.1052V53.4613L67.1543 53.479Z" fill="white"/>
<path d="M73.1092 53.479C72.7724 52.8499 72.48 52.265 72.223 51.6447H71.5673V53.4968H70.6811V48.7647C71.1782 48.7055 71.6781 48.6729 72.1787 48.6672C73.1446 48.6672 74.0485 48.9065 74.0485 50.1382C74.0754 50.4344 74.0029 50.731 73.8424 50.9813C73.6819 51.2317 73.4426 51.4214 73.1623 51.5206C73.437 52.0789 73.8535 52.7967 74.27 53.479H73.1092ZM71.5407 50.9535C71.8761 50.9718 72.2125 50.9479 72.542 50.8826C72.7029 50.8464 72.8439 50.75 72.9361 50.6133C73.0284 50.4766 73.0649 50.3098 73.0383 50.1471C73.0383 49.58 72.6306 49.4825 72.1521 49.4825H71.5141L71.5407 50.9535Z" fill="white"/>
<path d="M75.413 53.479V49.5445H74.1281V48.7204H77.6196V49.5268H76.3347V53.4613L75.413 53.479Z" fill="white"/>
<path d="M77.9652 53.479V48.7204H78.8514V53.4613L77.9652 53.479Z" fill="white"/>
<path d="M79.6576 53.479V48.7204H82.6617V49.5268H80.5792V50.7142H82.3072V51.5118H80.5792V53.4613L79.6576 53.479Z" fill="white"/>
<path d="M83.105 53.479V48.7204H83.9911V53.4613L83.105 53.479Z" fill="white"/>
<path d="M84.7973 53.479V48.7204H87.7482V49.5268H85.7278V50.6345H87.4026V51.432H85.7278V52.6461H87.7482V53.4613L84.7973 53.479Z" fill="white"/>
<path d="M88.2531 48.7913C88.743 48.7166 89.2375 48.6751 89.733 48.6672C91.3369 48.6672 91.8952 49.5534 91.8952 51.1041C91.8952 52.6549 91.3369 53.5411 89.733 53.5411C89.2387 53.5398 88.7447 53.5132 88.2531 53.4613V48.7913ZM89.1393 52.7081C89.2957 52.7164 89.4525 52.7164 89.6089 52.7081C90.6546 52.7081 90.9116 52.2561 90.9116 51.0864C90.9116 49.9167 90.6546 49.4648 89.6089 49.4648H89.1393V52.7081Z" fill="white"/>
<path d="M63.6269 18.8039V12.7514H64.513V18.8039H63.6269Z" fill="white"/>
<path d="M65.488 17.9622C65.9597 18.0412 66.4365 18.0857 66.9147 18.0951C67.3736 18.1403 67.8332 18.0175 68.2085 17.7495C68.2913 17.6695 68.3562 17.5728 68.399 17.4659C68.4418 17.359 68.4614 17.2442 68.4566 17.1292C68.4566 16.5355 68.0933 16.3405 67.0476 16.0304C66.0019 15.7202 65.3373 15.2948 65.3373 14.258C65.331 14.025 65.3808 13.7938 65.4826 13.5841C65.5844 13.3743 65.7352 13.1921 65.9222 13.0529C66.3578 12.7513 66.882 12.6046 67.4109 12.6364C67.9736 12.6482 68.5342 12.7105 69.0858 12.8225L68.9794 13.5757C68.5223 13.5012 68.0601 13.4627 67.597 13.4605C67.2373 13.4333 66.8774 13.5102 66.5602 13.682C66.4682 13.7443 66.3938 13.8292 66.3442 13.9285C66.2945 14.0278 66.2713 14.1383 66.2766 14.2492C66.2766 14.8695 66.7552 15.0467 67.7477 15.348C68.7402 15.6493 69.3959 16.0569 69.3959 17.1203C69.4067 17.3758 69.3569 17.6302 69.2507 17.8627C69.1444 18.0953 68.9846 18.2994 68.7845 18.4584C68.2938 18.7871 67.7076 18.943 67.1185 18.9015C66.5415 18.89 65.9665 18.8307 65.3993 18.7243L65.488 17.9622Z" fill="white"/>
<path d="M69.7949 15.7817C69.7949 13.7258 70.5747 12.6535 72.4533 12.6535C74.332 12.6535 75.0675 13.7258 75.0675 15.7817C75.0675 17.8375 74.2877 18.9009 72.4533 18.9009C70.619 18.9009 69.7949 17.8287 69.7949 15.7817ZM74.1016 15.7817C74.1016 14.1777 73.6231 13.4599 72.409 13.4599C71.195 13.4599 70.7165 14.1777 70.7165 15.7817C70.7165 17.3856 71.195 18.0945 72.409 18.0945C73.6231 18.0945 74.1016 17.3767 74.1016 15.7817Z" fill="white"/>
<path d="M75.2358 18.8039L77.593 12.7514H78.3197L75.9891 18.8039H75.2358Z" fill="white"/>
<path d="M78.8602 18.8039V12.7514H79.7464V18.8039H78.8602Z" fill="white"/>
<path d="M80.7919 18.8039V12.7514H84.434V13.549H81.7756V15.3213H83.991V16.11H81.687V18.0418H84.3454V18.8393L80.7919 18.8039Z" fill="white"/>
<path d="M89.2013 18.4405C88.6005 18.7383 87.94 18.8959 87.2695 18.9013C86.8929 18.9254 86.5161 18.8572 86.1718 18.7028C85.8274 18.5484 85.5259 18.3124 85.2934 18.0152C84.8709 17.3438 84.6724 16.5557 84.7262 15.7643C84.6709 14.9243 84.9089 14.0911 85.3997 13.4072C85.6582 13.1343 85.9749 12.9233 86.3263 12.7898C86.6776 12.6564 87.0545 12.6038 87.429 12.6362C87.9564 12.6433 88.4818 12.7026 88.9975 12.8134L88.9089 13.5755C88.438 13.4907 87.9607 13.4463 87.4822 13.4426C87.2192 13.4151 86.9535 13.4506 86.7069 13.5461C86.4604 13.6417 86.2401 13.7945 86.0643 13.992C85.7427 14.5244 85.597 15.1445 85.6478 15.7643C85.6075 16.3494 85.7269 16.9345 85.9934 17.4569C86.1404 17.6642 86.3382 17.8302 86.5679 17.9388C86.7977 18.0474 87.0515 18.0951 87.3049 18.0772C87.8726 18.0556 88.4313 17.9294 88.9532 17.705L89.2013 18.4405Z" fill="white"/>
<path d="M63.5119 28.6224V27.9046C65.1867 26.4513 66.383 25.3082 66.383 24.3068C66.383 23.5536 65.8159 23.2789 65.1867 23.2789C64.6604 23.2973 64.1414 23.4083 63.6536 23.6068L63.3967 22.889C63.9787 22.6239 64.6092 22.482 65.2487 22.4725C66.4628 22.4725 67.3046 23.0839 67.3046 24.2448C67.3046 25.4057 65.9754 26.6995 64.6461 27.7894H67.3046V28.5958L63.5119 28.6224Z" fill="white"/>
<path d="M68.7488 28.6226C69.2223 26.7777 69.9405 25.0044 70.8844 23.35H67.8538V22.5613H71.8149V23.3057C70.8556 24.9643 70.1478 26.7562 69.7147 28.6226H68.7488Z" fill="white"/>
<path d="M72.2937 25.5918C72.2937 23.5625 72.7191 22.4725 74.4825 22.4725C76.246 22.4725 76.6713 23.5625 76.6713 25.5918C76.6713 27.6211 76.246 28.711 74.4825 28.711C72.7191 28.711 72.2937 27.6122 72.2937 25.5918ZM75.7674 25.5918C75.7674 24.1562 75.6788 23.2612 74.4825 23.2612C73.2862 23.2612 73.1976 24.1473 73.1976 25.5918C73.1976 27.0362 73.2773 27.9312 74.4825 27.9312C75.6877 27.9312 75.7674 27.0185 75.7674 25.5918Z" fill="white"/>
<path d="M77.3449 25.5918C77.3449 23.5625 77.7703 22.4725 79.5337 22.4725C81.2972 22.4725 81.7137 23.5625 81.7137 25.5918C81.7137 27.6211 81.2972 28.711 79.5337 28.711C77.7703 28.711 77.3449 27.6122 77.3449 25.5918ZM80.8186 25.5918C80.8186 24.1562 80.73 23.2612 79.5337 23.2612C78.3374 23.2612 78.2311 24.1562 78.2311 25.5918C78.2311 27.0273 78.302 27.9312 79.516 27.9312C80.73 27.9312 80.7921 27.0185 80.7921 25.5918H80.8186Z" fill="white"/>
<path d="M83.2734 28.6226V23.4741L82.015 23.9526L81.7758 23.3412L83.3886 22.5613H84.2127V28.6226H83.2734Z" fill="white"/>
<path d="M63.4586 36.3851V31.6442H64.1587V36.3851H63.4586Z" fill="white"/>
<path d="M66.9679 36.3847V34.1604C66.9679 33.7262 66.7641 33.5135 66.3919 33.5135C66.1048 33.5229 65.8234 33.5955 65.5677 33.7262V36.3847H64.9386V32.9907H65.4348L65.4968 33.292C65.7906 33.0595 66.1505 32.9261 66.5248 32.9109C66.6763 32.9086 66.8265 32.9387 66.9654 32.9992C67.1043 33.0597 67.2286 33.1491 67.3302 33.2615C67.4317 33.374 67.508 33.5068 67.554 33.6511C67.6001 33.7954 67.6147 33.9479 67.597 34.0984V36.3847H66.9679Z" fill="white"/>
<path d="M68.4834 36.3852V33.5407H67.9517V33.0444H68.4568V32.6722C68.4426 32.5254 68.4589 32.3772 68.5047 32.2369C68.5504 32.0966 68.6246 31.9673 68.7227 31.857C68.9727 31.658 69.2911 31.5657 69.6088 31.6H70.1051V32.1583H69.6443C69.467 32.1583 69.343 32.1583 69.2809 32.2735C69.1937 32.4037 69.1559 32.5609 69.1746 32.7165V33.0001H69.919V33.5495H69.1746V36.3941L68.4834 36.3852Z" fill="white"/>
<path d="M71.5229 36.4649C71.3276 36.4779 71.1317 36.4507 70.9474 36.3852C70.763 36.3197 70.5939 36.2171 70.4506 36.0839C70.2845 35.8932 70.1588 35.6708 70.0811 35.4302C70.0034 35.1895 69.9754 34.9356 69.9987 34.6838C69.9761 34.4334 70.0045 34.181 70.0822 33.9419C70.1599 33.7028 70.2852 33.4819 70.4506 33.2925C70.7538 33.0464 71.1324 32.9121 71.5229 32.9121C71.9133 32.9121 72.2919 33.0464 72.5951 33.2925C72.7605 33.4819 72.8858 33.7028 72.9635 33.9419C73.0412 34.181 73.0696 34.4334 73.047 34.6838C73.0703 34.9356 73.0422 35.1895 72.9646 35.4302C72.8869 35.6708 72.7612 35.8932 72.5951 36.0839C72.4518 36.2171 72.2827 36.3197 72.0983 36.3852C71.9139 36.4507 71.7181 36.4779 71.5229 36.4649ZM72.409 34.6926C72.4379 34.3574 72.3502 34.0225 72.1609 33.7444C71.997 33.5925 71.7818 33.508 71.5583 33.508C71.3348 33.508 71.1196 33.5925 70.9557 33.7444C70.7664 34.0225 70.6787 34.3574 70.7076 34.6926C70.6744 35.031 70.7623 35.3701 70.9557 35.6497C71.0336 35.7293 71.1277 35.7912 71.2317 35.8309C71.3358 35.8707 71.4472 35.8875 71.5583 35.8801C71.6691 35.8847 71.7797 35.8666 71.8834 35.827C71.987 35.7874 72.0814 35.7271 72.1609 35.6497C72.344 35.3631 72.4193 35.0208 72.3736 34.6838L72.409 34.6926Z" fill="white"/>
<path d="M73.499 36.3851V32.9911H73.9953L74.0839 33.4076C74.1923 33.2424 74.3436 33.1098 74.5215 33.024C74.6994 32.9382 74.8974 32.9023 75.0941 32.9202C75.1915 32.9129 75.2892 32.9129 75.3865 32.9202V33.5317C75.254 33.5182 75.1204 33.5182 74.9878 33.5317C74.6974 33.5217 74.4124 33.6125 74.1814 33.7887V36.4028L73.499 36.3851Z" fill="white"/>
<path d="M79.6752 36.3853V34.1345C79.6752 33.7091 79.4626 33.5142 79.0904 33.5142C78.8111 33.5235 78.5391 33.606 78.3017 33.7534C78.3105 33.8921 78.3105 34.0312 78.3017 34.1699V36.3853H77.6371V34.1345C77.6371 33.7091 77.4333 33.5142 77.0611 33.5142C76.793 33.5188 76.5307 33.592 76.299 33.7269V36.3853H75.6344V32.9913H76.1218L76.1838 33.2926C76.4733 33.0587 76.8309 32.9249 77.2029 32.9116C77.3756 32.9004 77.5483 32.9346 77.7037 33.0108C77.8592 33.0869 77.992 33.2024 78.089 33.3458C78.3828 33.0828 78.7585 32.9294 79.1524 32.9116C79.9056 32.9116 80.3044 33.3369 80.3044 34.1611V36.3853H79.6752Z" fill="white"/>
<path d="M82.9454 36.3854L82.8745 36.1018C82.5992 36.3402 82.2461 36.4695 81.882 36.4651C81.7388 36.4761 81.595 36.4575 81.4594 36.4104C81.3238 36.3633 81.1993 36.2888 81.0937 36.1916C80.9881 36.0943 80.9037 35.9764 80.8457 35.845C80.7877 35.7137 80.7573 35.5719 80.7565 35.4283C80.7529 35.2775 80.7828 35.1276 80.8441 34.9897C80.9054 34.8518 80.9966 34.7292 81.111 34.6308C81.372 34.454 81.6821 34.3641 81.9972 34.3738C82.2364 34.3738 82.5111 34.3738 82.7415 34.3738V34.0814C82.7722 33.9346 82.7436 33.7817 82.6618 33.656C82.4845 33.5379 82.2706 33.4875 82.0592 33.5142C81.7243 33.5265 81.3916 33.574 81.0667 33.656L80.9692 33.0978C81.333 32.9976 81.7085 32.947 82.0858 32.9471C82.4461 32.9141 82.8066 33.0082 83.1049 33.213C83.2252 33.325 83.3181 33.4631 83.3765 33.6168C83.4349 33.7705 83.4572 33.9355 83.4416 34.0991V36.4386L82.9454 36.3854ZM82.7681 34.8612H82.1655C81.6693 34.8612 81.4389 35.0384 81.4389 35.4106C81.4344 35.4859 81.4466 35.5612 81.4744 35.6312C81.5023 35.7012 81.5453 35.7643 81.6002 35.8159C81.6552 35.8674 81.7208 35.9063 81.7925 35.9297C81.8642 35.9531 81.9401 35.9604 82.0149 35.9512C82.2859 35.9506 82.5498 35.8637 82.7681 35.7031V34.8612Z" fill="white"/>
<path d="M85.8784 36.2441C85.6227 36.3737 85.3409 36.4434 85.0543 36.4479C84.5049 36.4479 84.1681 36.1378 84.1681 35.5618V33.5413H83.663V33.0451H84.1947L84.2479 32.0437H84.8416V33.0185H85.7898V33.5679H84.8594V35.4288C84.8594 35.677 84.8593 35.8542 85.1606 35.8542C85.333 35.8488 85.5022 35.8065 85.6569 35.7301L85.8784 36.2441Z" fill="white"/>
<path d="M86.5519 31.6267C86.6255 31.6267 86.6975 31.6485 86.7587 31.6894C86.8199 31.7303 86.8676 31.7884 86.8957 31.8565C86.9239 31.9245 86.9313 31.9993 86.9169 32.0715C86.9026 32.1437 86.8671 32.21 86.8151 32.2621C86.763 32.3141 86.6967 32.3496 86.6245 32.3639C86.5523 32.3783 86.4775 32.3709 86.4095 32.3427C86.3415 32.3146 86.2833 32.2669 86.2424 32.2057C86.2015 32.1445 86.1797 32.0725 86.1797 31.9989C86.1797 31.95 86.1893 31.9016 86.208 31.8565C86.2267 31.8113 86.2542 31.7703 86.2887 31.7357C86.3233 31.7011 86.3643 31.6737 86.4095 31.655C86.4546 31.6363 86.503 31.6267 86.5519 31.6267ZM86.2063 36.3854V32.9914H86.8709V36.3854H86.2063Z" fill="white"/>
<path d="M88.8646 36.4649C88.6694 36.4779 88.4735 36.4507 88.2891 36.3852C88.1047 36.3197 87.9357 36.2171 87.7924 36.0839C87.6263 35.8932 87.5006 35.6708 87.4229 35.4302C87.3452 35.1895 87.3172 34.9356 87.3404 34.6838C87.3179 34.4334 87.3463 34.181 87.424 33.9419C87.5016 33.7028 87.627 33.4819 87.7924 33.2925C88.0956 33.0464 88.4741 32.9121 88.8646 32.9121C89.2551 32.9121 89.6337 33.0464 89.9369 33.2925C90.1023 33.4819 90.2276 33.7028 90.3053 33.9419C90.3829 34.181 90.4114 34.4334 90.3888 34.6838C90.4121 34.9356 90.384 35.1895 90.3063 35.4302C90.2287 35.6708 90.103 35.8932 89.9369 36.0839C89.7935 36.2171 89.6245 36.3197 89.4401 36.3852C89.2557 36.4507 89.0599 36.4779 88.8646 36.4649ZM89.7508 34.6926C89.7822 34.3585 89.6977 34.0237 89.5115 33.7444C89.3477 33.5925 89.1324 33.508 88.9089 33.508C88.6854 33.508 88.4702 33.5925 88.3063 33.7444C88.0906 34.0096 87.9746 34.342 87.9785 34.6838C87.9452 35.0221 88.0332 35.3612 88.2266 35.6408C88.3044 35.7205 88.3986 35.7823 88.5026 35.8221C88.6067 35.8619 88.718 35.8786 88.8292 35.8712C88.94 35.8758 89.0506 35.8578 89.1542 35.8182C89.2578 35.7785 89.3523 35.7182 89.4318 35.6408C89.6497 35.3705 89.7629 35.0308 89.7508 34.6838V34.6926Z" fill="white"/>
<path d="M92.9056 36.385V34.1608C92.9056 33.7266 92.7018 33.5139 92.3297 33.5139C92.0426 33.5232 91.7612 33.5958 91.5055 33.7266V36.385H90.832V32.9911H91.3283L91.3903 33.2923C91.6841 33.0599 92.044 32.9265 92.4183 32.9113C92.5762 32.8969 92.7354 32.9181 92.8842 32.9732C93.0329 33.0283 93.1674 33.116 93.2779 33.2299C93.3884 33.3437 93.4719 33.4808 93.5225 33.6312C93.5731 33.7815 93.5894 33.9413 93.5703 34.0988V36.385H92.9056Z" fill="white"/>
<path d="M95.6086 35.7294C95.9807 35.7902 96.3569 35.8228 96.734 35.8269C97.0918 35.8632 97.4506 35.7688 97.7442 35.561C97.8099 35.4986 97.8613 35.4228 97.8949 35.3387C97.9286 35.2545 97.9437 35.1641 97.9391 35.0737C97.9391 34.6129 97.6556 34.4622 96.8315 34.1875C96.0073 33.9128 95.4934 33.6115 95.4934 32.814C95.4898 32.6333 95.5298 32.4544 95.61 32.2924C95.6902 32.1305 95.8083 31.9902 95.9542 31.8835C96.2949 31.6432 96.7079 31.5274 97.1239 31.5556C97.565 31.561 98.0045 31.6115 98.4354 31.7063L98.3468 32.2911C97.9842 32.2242 97.6166 32.1886 97.2479 32.1848C96.9647 32.1624 96.6811 32.224 96.4327 32.362C96.3615 32.4092 96.3037 32.474 96.2649 32.5501C96.2261 32.6261 96.2076 32.7109 96.2111 32.7962C96.2111 33.2836 96.5833 33.4254 97.3631 33.6824C98.143 33.9394 98.6569 34.2407 98.6569 35.0737C98.6625 35.2729 98.6223 35.4709 98.5393 35.6522C98.4563 35.8334 98.3329 35.9933 98.1784 36.1193C97.7945 36.3757 97.3363 36.4973 96.8758 36.4649C96.4206 36.4561 95.9671 36.4086 95.5199 36.3231L95.6086 35.7294Z" fill="white"/>
<path d="M101.634 36.1905C101.265 36.3642 100.863 36.4578 100.455 36.4652C99.4541 36.4652 98.9136 35.836 98.9136 34.6929C98.9136 33.7535 99.3478 32.9205 100.385 32.9205C101.209 32.9205 101.687 33.5143 101.687 34.427C101.684 34.5995 101.666 34.7715 101.634 34.941H99.5959C99.5883 35.1941 99.6699 35.4419 99.8263 35.641C99.9165 35.7239 100.023 35.7872 100.139 35.8268C100.255 35.8665 100.378 35.8817 100.5 35.8714C100.836 35.8691 101.168 35.7966 101.475 35.6588L101.634 36.1905ZM101.049 34.4181C101.049 33.913 100.907 33.532 100.358 33.532C99.8086 33.532 99.6313 33.9751 99.6048 34.4181H101.049Z" fill="white"/>
<path d="M104.541 36.1906C104.178 36.3645 103.782 36.4582 103.38 36.4653C102.494 36.4653 101.909 35.9602 101.909 34.693C101.909 33.2486 102.644 32.9207 103.468 32.9207C103.788 32.918 104.106 32.9537 104.417 33.027L104.355 33.5853C104.099 33.5463 103.842 33.5256 103.584 33.5233C102.928 33.5233 102.591 33.7803 102.591 34.693C102.591 35.6057 102.866 35.8716 103.477 35.8716C103.784 35.8634 104.086 35.7909 104.364 35.6589L104.541 36.1906Z" fill="white"/>
<path d="M107.12 36.3852L107.067 36.1016C106.772 36.3309 106.412 36.4612 106.039 36.4738C105.881 36.4882 105.721 36.4671 105.573 36.4119C105.424 36.3568 105.289 36.2691 105.179 36.1553C105.069 36.0414 104.985 35.9043 104.934 35.7539C104.884 35.6036 104.868 35.4438 104.887 35.2864V32.9912H105.56V35.2155C105.56 35.6851 105.755 35.8624 106.154 35.8624C106.428 35.8546 106.697 35.7881 106.943 35.6674V33.009H107.607V36.4029L107.12 36.3852Z" fill="white"/>
<path d="M108.28 36.3853V32.9913H108.777L108.865 33.4078C108.972 33.2433 109.122 33.1111 109.298 33.0252C109.475 32.9394 109.671 32.9031 109.867 32.9204C109.967 32.9128 110.068 32.9128 110.168 32.9204V33.5319C110.032 33.5184 109.896 33.5184 109.76 33.5319C109.47 33.5226 109.185 33.6133 108.954 33.7888V36.403L108.28 36.3853Z" fill="white"/>
<path d="M110.78 31.6267C110.878 31.6267 110.973 31.6659 111.043 31.7357C111.113 31.8055 111.152 31.9002 111.152 31.9989C111.152 32.0976 111.113 32.1923 111.043 32.2621C110.973 32.3319 110.878 32.3711 110.78 32.3711C110.681 32.3711 110.586 32.3319 110.516 32.2621C110.447 32.1923 110.407 32.0976 110.407 31.9989C110.407 31.9002 110.447 31.8055 110.516 31.7357C110.586 31.6659 110.681 31.6267 110.78 31.6267ZM110.452 36.3854V32.9914H111.116V36.3854H110.452Z" fill="white"/>
<path d="M113.589 36.2441C113.336 36.3727 113.057 36.4424 112.773 36.4479C112.654 36.4604 112.533 36.4461 112.42 36.406C112.307 36.3659 112.204 36.301 112.119 36.2161C112.034 36.1312 111.969 36.0284 111.929 35.9152C111.889 35.8019 111.875 35.6812 111.887 35.5618V33.5413H111.382V33.0451H111.914L111.967 32.0437H112.561V33.0185H113.509V33.5679H112.561V35.4288C112.561 35.677 112.561 35.8542 112.862 35.8542C113.034 35.8488 113.204 35.8065 113.358 35.7301L113.589 36.2441Z" fill="white"/>
<path d="M114.51 37.7322C114.714 37.2093 114.874 36.7397 114.989 36.3852H114.634C114.289 35.4459 113.934 34.2053 113.624 32.9912H114.324C114.549 33.9955 114.806 34.9526 115.095 35.8624H115.148C115.423 35.0294 115.707 33.966 115.928 32.9912H116.611C116.228 34.6001 115.746 36.1836 115.166 37.7322H114.51Z" fill="white"/>
<path d="M67.3666 44.1564C67.3666 42.8892 67.2692 41.5866 67.2071 40.3371L66.0994 43.4032H65.3373L64.2651 40.3814C64.2031 41.6309 64.1499 42.9336 64.1056 44.2008H63.3967C63.4498 42.6234 63.5296 41.046 63.6182 39.4598H64.6461L65.7361 42.6057L66.8261 39.4598H67.854C67.9426 41.046 68.0312 42.6234 68.0756 44.2008L67.3666 44.1564Z" fill="white"/>
<path d="M70.7162 44.1566L70.6365 43.8731C70.3583 44.1055 70.0064 44.2311 69.644 44.2275C69.4955 44.2455 69.3449 44.2311 69.2025 44.1854C69.0601 44.1397 68.9293 44.0638 68.819 43.9628C68.7087 43.8617 68.6216 43.7381 68.5636 43.6002C68.5057 43.4624 68.4782 43.3136 68.4831 43.1641C68.4792 43.0124 68.5099 42.8617 68.5729 42.7235C68.6358 42.5853 68.7294 42.4633 68.8464 42.3666C69.1052 42.1851 69.4169 42.0948 69.7326 42.1096H70.477V41.826C70.4835 41.7492 70.4743 41.6719 70.4499 41.5988C70.4255 41.5256 70.3865 41.4582 70.3352 41.4007C70.1591 41.2794 69.945 41.2259 69.7326 41.25C69.4104 41.2551 69.0897 41.2937 68.7755 41.3652L68.6692 40.807C69.0329 40.7068 69.4085 40.6562 69.7858 40.6563C70.1488 40.6235 70.5121 40.7174 70.8137 40.9222C70.9335 41.0342 71.0255 41.1726 71.0824 41.3265C71.1394 41.4803 71.1596 41.6453 71.1416 41.8083V44.1478L70.7162 44.1566ZM70.539 42.6324C70.3706 42.6324 70.1402 42.6324 69.9364 42.6324C69.4401 42.6324 69.2009 42.8097 69.2009 43.1819C69.1978 43.2575 69.2111 43.333 69.2401 43.403C69.269 43.473 69.3128 43.5359 69.3684 43.5873C69.424 43.6387 69.4902 43.6774 69.5622 43.7007C69.6343 43.7241 69.7106 43.7315 69.7858 43.7224C70.0581 43.7211 70.3226 43.6309 70.539 43.4654V42.6324Z" fill="white"/>
<path d="M73.9153 44.1565V41.9234C73.9153 41.4892 73.7203 41.2854 73.3393 41.2854C73.0523 41.2947 72.7709 41.3673 72.5152 41.4981V44.1565H71.8417V40.7448H72.3379L72.3999 41.055C72.6937 40.8225 73.0536 40.6891 73.4279 40.6739C73.5866 40.6581 73.7468 40.6782 73.8966 40.7327C74.0465 40.7872 74.1822 40.8747 74.2937 40.9887C74.4051 41.1028 74.4895 41.2404 74.5406 41.3914C74.5917 41.5425 74.6081 41.7031 74.5888 41.8614V44.1477L73.9153 44.1565Z" fill="white"/>
<path d="M77.194 44.1566L77.1142 43.8731C76.8361 44.1055 76.4842 44.2311 76.1217 44.2275C75.9761 44.2401 75.8294 44.2217 75.6913 44.1735C75.5532 44.1254 75.4269 44.0486 75.3206 43.9482C75.2143 43.8477 75.1305 43.726 75.0746 43.5908C75.0187 43.4557 74.992 43.3103 74.9963 43.1641C74.9925 43.0124 75.0232 42.8617 75.0861 42.7235C75.149 42.5853 75.2426 42.4633 75.3596 42.3666C75.6178 42.1839 75.93 42.0934 76.2458 42.1096H76.9902V41.826C76.9967 41.7492 76.9875 41.6719 76.9631 41.5988C76.9387 41.5256 76.8997 41.4582 76.8484 41.4007C76.6723 41.2794 76.4583 41.2259 76.2458 41.25C75.9237 41.2551 75.6029 41.2937 75.2888 41.3652L75.1824 40.807C75.5462 40.7068 75.9217 40.6562 76.299 40.6563C76.6621 40.6235 77.0253 40.7174 77.3269 40.9222C77.4467 41.0342 77.5387 41.1726 77.5957 41.3265C77.6526 41.4803 77.6728 41.6453 77.6548 41.8083V44.1478L77.194 44.1566ZM77.0168 42.6324C76.8395 42.6324 76.618 42.6324 76.4142 42.6324C75.9179 42.6324 75.6787 42.8097 75.6787 43.1819C75.6756 43.2575 75.6889 43.333 75.7179 43.403C75.7468 43.473 75.7906 43.5359 75.8462 43.5873C75.9018 43.6387 75.9679 43.6774 76.04 43.7007C76.1121 43.7241 76.1883 43.7315 76.2635 43.7224C76.5359 43.7211 76.8004 43.6309 77.0168 43.4654V42.6324Z" fill="white"/>
<path d="M80.2869 43.9713C80.0496 44.135 79.7689 44.2245 79.4805 44.2282C78.5146 44.2282 78.1601 43.6079 78.1601 42.4559C78.1601 41.1799 78.5589 40.6836 79.4982 40.6836C79.9951 40.6866 80.4885 40.7673 80.9604 40.9229V44.4675C80.9703 44.6164 80.9477 44.7656 80.8941 44.9049C80.8406 45.0441 80.7574 45.1701 80.6502 45.2739C80.3503 45.4988 79.9782 45.606 79.6046 45.5752C79.2352 45.5681 78.8674 45.5265 78.5057 45.4511L78.5944 44.884C78.8877 44.9301 79.1837 44.9567 79.4805 44.9638C79.7072 44.9916 79.9364 44.9382 80.1274 44.8131C80.2223 44.6958 80.2697 44.5472 80.2603 44.3966L80.2869 43.9713ZM80.2869 41.3128C80.05 41.2695 79.8099 41.2458 79.5691 41.2419C78.9843 41.2419 78.8425 41.6407 78.8425 42.4559C78.8425 43.2712 78.9931 43.6434 79.5603 43.6434C79.8113 43.6445 80.0594 43.59 80.2869 43.4839V41.3128Z" fill="white"/>
<path d="M84.0529 43.9624C83.6846 44.1281 83.2869 44.2185 82.8832 44.2282C81.8818 44.2282 81.3412 43.6079 81.3412 42.4559C81.3412 41.5166 81.7666 40.6836 82.8034 40.6836C83.6275 40.6836 84.106 41.2685 84.106 42.1812C84.1077 42.3569 84.0899 42.5323 84.0529 42.7041H82.0147C82.0115 42.9566 82.0925 43.2029 82.2451 43.4041C82.3364 43.4882 82.4443 43.5521 82.5618 43.5918C82.6794 43.6315 82.8039 43.646 82.9275 43.6345C83.2641 43.6202 83.5948 43.542 83.9022 43.4041L84.0529 43.9624ZM83.4769 42.1901C83.4769 41.6761 83.3262 41.3039 82.7857 41.3039C82.2451 41.3039 82.059 41.747 82.0236 42.1901H83.4769Z" fill="white"/>
<path d="M88.5547 44.1573V41.9065C88.5547 41.4811 88.3509 41.2862 87.9698 41.2862C87.6907 41.2967 87.4191 41.3791 87.1812 41.5254C87.209 41.6625 87.2239 41.802 87.2255 41.9419V44.1573H86.552V41.9065C86.552 41.4811 86.357 41.2862 85.976 41.2862C85.7115 41.2876 85.4519 41.3578 85.2227 41.49V44.1484H84.5493V40.7456H85.0455L85.0987 41.0558C85.3902 40.8194 85.7514 40.6855 86.1266 40.6747C86.2996 40.6617 86.4729 40.6951 86.6287 40.7714C86.7845 40.8477 86.9171 40.9642 87.0128 41.1089C87.3031 40.8459 87.676 40.6924 88.0673 40.6747C88.8294 40.6747 89.2282 41.0912 89.2282 41.9242V44.1484L88.5547 44.1573Z" fill="white"/>
<path d="M92.3031 43.9624C91.932 44.129 91.5312 44.2194 91.1245 44.2282C90.1232 44.2282 89.5826 43.6079 89.5826 42.4559C89.5826 41.5166 90.008 40.6836 91.0536 40.6836C91.8778 40.6836 92.3563 41.2685 92.3563 42.1812C92.3536 42.3567 92.3358 42.5316 92.3031 42.7041H90.265C90.2591 42.9555 90.3371 43.2018 90.4865 43.4041C90.5778 43.4882 90.6857 43.5521 90.8032 43.5918C90.9208 43.6315 91.0453 43.646 91.1688 43.6345C91.5045 43.6278 91.8356 43.5555 92.1436 43.4218L92.3031 43.9624ZM91.7183 42.1901C91.7183 41.6761 91.5765 41.3039 91.0271 41.3039C90.4776 41.3039 90.3004 41.747 90.265 42.1901H91.7183Z" fill="white"/>
<path d="M94.8643 44.157V41.9239C94.8643 41.4897 94.6604 41.2858 94.2883 41.2858C94.0012 41.2952 93.7198 41.3678 93.4641 41.4985V44.157H92.7906V40.7453H93.2958L93.3578 41.0554C93.6516 40.823 94.0114 40.6896 94.3857 40.6744C94.5437 40.66 94.7029 40.6812 94.8516 40.7363C95.0004 40.7914 95.1349 40.8791 95.2454 40.9929C95.3558 41.1068 95.4394 41.2439 95.49 41.3943C95.5406 41.5446 95.5569 41.7044 95.5377 41.8618V44.1481L94.8643 44.157Z" fill="white"/>
<path d="M97.9391 44.0061C97.6884 44.1415 97.4087 44.2144 97.1238 44.2188C96.5655 44.2188 96.2377 43.9086 96.2377 43.2883V41.3122H95.7237V40.8159H96.2554L96.3086 39.8146H96.9023V40.745H97.8505V41.3033H96.9023V43.1731C96.9023 43.4301 96.9023 43.6073 97.2036 43.6073C97.3773 43.6039 97.5476 43.5583 97.6998 43.4744L97.9391 44.0061Z" fill="white"/>
<path d="M96.8405 64.6182H29.2268C29.1252 64.6294 29.0224 64.6192 28.9251 64.588C28.8278 64.5569 28.7381 64.5055 28.662 64.4374C28.5858 64.3692 28.5249 64.2858 28.4832 64.1925C28.4415 64.0992 28.42 63.9981 28.42 63.896C28.42 63.7938 28.4415 63.6927 28.4832 63.5994C28.5249 63.5062 28.5858 63.4227 28.662 63.3546C28.7381 63.2864 28.8278 63.2351 28.9251 63.2039C29.0224 63.1728 29.1252 63.1625 29.2268 63.1737H96.8405C104.143 63.1737 111.146 60.273 116.309 55.1096C121.473 49.9461 124.373 42.943 124.373 35.6409C124.373 28.3387 121.473 21.3356 116.309 16.1722C111.146 11.0088 104.143 8.10799 96.8405 8.10799H43.6711C43.4799 8.10801 43.2964 8.03267 43.1604 7.89831C43.0244 7.76394 42.9468 7.58139 42.9445 7.39021C42.9445 7.19749 43.021 7.01266 43.1573 6.87639C43.2936 6.74012 43.4784 6.66356 43.6711 6.66356H96.8405C104.526 6.66356 111.896 9.71652 117.331 15.1508C122.765 20.5851 125.818 27.9556 125.818 35.6409C125.818 43.3261 122.765 50.6966 117.331 56.1309C111.896 61.5652 104.526 64.6182 96.8405 64.6182Z" fill="white"/>
<path d="M30.91 28.755C30.9945 27.1811 31.6793 25.6994 32.8233 24.6151C33.9674 23.5309 35.4836 22.9265 37.0599 22.9265C38.6361 22.9265 40.1524 23.5309 41.2964 24.6151C42.4405 25.6994 43.1253 27.1811 43.2098 28.755H30.91ZM36.1028 43.4032C35.2167 40.8422 33.1608 39.4952 31.4151 38.3521C29.4921 37.0494 28.668 36.4025 28.6059 35.1885C28.5988 34.3995 28.9043 33.6398 29.4555 33.0752C30.0068 32.5107 30.759 32.1873 31.548 32.1756H42.3236L36.1028 43.4032ZM27.7818 53.1509C28.2616 53.2362 28.7478 53.2806 29.2351 53.2838C29.7197 53.2853 30.2034 53.2408 30.6796 53.1509L29.2351 55.7385L27.7818 53.1509ZM26.0095 32.2288C25.5356 33.1317 25.2806 34.1334 25.2651 35.1531C25.2651 35.1531 25.2651 35.224 25.2651 35.2594C25.3183 38.4584 27.6843 40.0092 29.5984 41.2587C31.867 42.7386 33.1431 43.6868 33.1431 46.1237C33.1431 48.5606 31.2644 49.8633 28.9427 49.8633C28.1307 49.8669 27.3297 49.6746 26.6078 49.3029C25.8858 48.9311 25.2642 48.3908 24.7955 47.7276L24.122 46.5668L16.0668 32.1756L26.0095 32.2288ZM21.5167 22.8975C23.1037 22.8951 24.6313 23.501 25.7851 24.5905C26.939 25.6801 27.6314 27.1705 27.7198 28.755H15.4022C15.4897 27.1857 16.1696 25.7081 17.3046 24.6207C18.4396 23.5334 19.945 22.9175 21.5167 22.8975ZM37.0333 19.6365C35.4899 19.6408 33.9726 20.0345 32.6219 20.7811C31.2711 21.5277 30.1306 22.6031 29.306 23.9077C28.4758 22.5943 27.3255 21.5132 25.963 20.7661C24.6005 20.019 23.0706 19.6303 21.5167 19.6365C18.9971 19.6505 16.5854 20.6613 14.8087 22.448C13.0321 24.2346 12.0348 26.6519 12.0348 29.1715V30.1108C12.0061 31.1729 12.2962 32.2193 12.8678 33.1149L29.2351 61.3656C29.2351 61.3656 44.7606 34.5416 45.5315 33.1415C46.1155 32.2489 46.4236 31.2041 46.4177 30.1374V29.1715C46.4366 26.6675 45.4624 24.2581 43.7085 22.4709C41.9545 20.6838 39.5638 19.6645 37.0599 19.6365" fill="white"/>
<path d="M23.3424 5.93698C22.354 5.94083 21.3878 6.23009 20.5599 6.76996V0.868164H18.2382V16.819H19.6028L19.975 15.9328C20.9404 16.6713 22.1271 17.0617 23.3424 17.0405C26.3642 17.0405 27.4896 14.958 27.4896 11.4577C27.4896 7.95741 26.3642 5.88381 23.3424 5.88381V5.93698ZM22.8019 7.95741C24.8312 7.95741 25.1413 9.5525 25.1413 11.502C25.1413 13.4516 24.8312 15.0467 22.8019 15.0467C22.0117 15.0499 21.236 14.8353 20.5599 14.4264V8.57772C21.236 8.1688 22.0117 7.95416 22.8019 7.95741ZM30.4317 9.26006C30.4317 8.30301 31.1938 7.93969 32.4255 7.93969C33.5115 7.92979 34.589 8.13145 35.598 8.53342V6.46867C34.5757 6.06467 33.4791 5.88341 32.3812 5.93698C29.3328 5.93698 28.172 7.48775 28.172 9.32209C28.172 11.1564 28.9341 12.1489 32.0711 12.4325C33.4623 12.5566 33.7902 12.9642 33.7902 13.7529C33.7902 14.6922 32.9838 15.0732 31.3267 15.0732C30.2686 15.0616 29.2212 14.8605 28.234 14.4795V16.5177C29.3291 16.9184 30.4887 17.1136 31.6546 17.0937C34.9776 17.0937 36.0853 15.4986 36.0853 13.6643C36.0853 11.6881 35.2789 10.7222 32.1597 10.4475C30.8127 10.3235 30.4405 10.0044 30.4405 9.26006H30.4317ZM39.7718 16.9873C39.9235 16.987 40.0748 16.9722 40.2237 16.943V15.0467C39.5591 15.0467 39.3375 14.834 39.3375 14.2314V6.1851H37.0247V14.2137C37.0247 16.0392 37.9108 16.9785 39.7629 16.9785L39.7718 16.9873ZM36.6702 3.03925C36.6702 3.44114 36.8299 3.82657 37.114 4.11074C37.3982 4.39492 37.7836 4.55457 38.1855 4.55457C38.5874 4.55457 38.9729 4.39492 39.257 4.11074C39.5412 3.82657 39.7009 3.44114 39.7009 3.03925C39.7009 2.63736 39.5412 2.25193 39.257 1.96775C38.9729 1.68357 38.5874 1.52392 38.1855 1.52392C37.7836 1.52392 37.3982 1.68357 37.114 1.96775C36.8299 2.25193 36.6702 2.63736 36.6702 3.03925Z" fill="white"/>
<path d="M29.2268 64.6182C22.8827 64.6207 16.7128 62.541 11.6647 58.6987C6.6166 54.8563 2.96892 49.4635 1.28156 43.3479C-0.405795 37.2324 -0.0395825 30.7321 2.32399 24.8448C4.68757 18.9575 8.91788 14.0085 14.3656 10.7574C14.4471 10.6974 14.5402 10.6551 14.639 10.6331C14.7378 10.6111 14.8401 10.6101 14.9394 10.6299C15.0386 10.6498 15.1326 10.6902 15.2153 10.7485C15.2981 10.8068 15.3677 10.8818 15.4198 10.9686C15.4718 11.0554 15.5052 11.1521 15.5177 11.2525C15.5303 11.353 15.5217 11.4549 15.4925 11.5518C15.4633 11.6487 15.4142 11.7385 15.3484 11.8153C15.2825 11.8922 15.2013 11.9544 15.11 11.9981C10.9755 14.4671 7.56084 17.9774 5.20694 22.1785C2.85303 26.3797 1.64219 31.1248 1.69526 35.9401C1.74833 40.7555 3.06346 45.4727 5.50939 49.6209C7.95531 53.7692 11.4465 57.2034 15.6344 59.5807C19.8224 61.958 24.5606 63.1953 29.3762 63.1692C34.1917 63.143 38.9162 61.8542 43.0781 59.4315C47.2399 57.0087 50.6935 53.5368 53.0942 49.3622C55.4949 45.1876 56.7586 40.4564 56.7593 35.6407C56.7811 30.8717 55.5542 26.18 53.2005 22.0323C50.8467 17.8845 47.4482 14.4251 43.3429 11.9981C43.1973 11.8908 43.097 11.7331 43.0615 11.5558C43.026 11.3785 43.0578 11.1943 43.1509 11.0392C43.2439 10.8841 43.3914 10.7693 43.5646 10.7172C43.7378 10.6651 43.9241 10.6795 44.0873 10.7574C49.535 14.0085 53.7654 18.9575 56.1289 24.8448C58.4925 30.7321 58.8587 37.2324 57.1714 43.3479C55.484 49.4635 51.8363 54.8563 46.7882 58.6987C41.7401 62.541 35.5708 64.6207 29.2268 64.6182Z" fill="white"/>
</svg>
