<svg width="120" height="34" viewBox="0 0 120 34" fill="none" xmlns="http://www.w3.org/2000/svg">
<g clip-path="url(#clip0)">
<path d="M47.8064 13.7766C47.1471 13.7766 46.5609 13.9093 46.047 14.174C45.5322 14.4385 45.0897 14.8057 44.7188 15.2738C44.3484 15.7426 44.0658 16.302 43.8699 16.9536C43.674 17.606 43.5769 18.3284 43.5769 19.123C43.5769 19.897 43.674 20.6098 43.8699 21.2613C44.0658 21.913 44.3484 22.4731 44.7188 22.9412C45.0897 23.4102 45.5322 23.7812 46.047 24.0562C46.5609 24.3311 47.1471 24.4686 47.8064 24.4686C48.4239 24.4686 49.015 24.3518 49.5812 24.1173C50.1473 23.8837 50.6357 23.542 51.0476 23.0938C51.4594 22.6464 51.7887 22.0861 52.0353 21.4139C52.2826 20.7416 52.4064 19.9781 52.4064 19.123C52.4064 18.2877 52.2771 17.5392 52.0201 16.8773C51.7622 16.2161 51.4233 15.6551 51.0018 15.1974C50.5794 14.7389 50.0911 14.3876 49.5354 14.1438C48.9796 13.899 48.403 13.7766 47.8064 13.7766ZM47.4973 26.9129C46.4068 26.9129 45.4391 26.719 44.5958 26.3321C43.7519 25.9458 43.0411 25.4054 42.4654 24.7133C41.8888 24.0212 41.4567 23.1963 41.1692 22.2388C40.8801 21.282 40.7363 20.2433 40.7363 19.123C40.7363 18.0637 40.8962 17.0657 41.2151 16.1288C41.5338 15.1927 41.9867 14.3678 42.5738 13.6541C43.1601 12.9422 43.8651 12.3764 44.6883 11.9592C45.5113 11.542 46.4373 11.333 47.4668 11.333C48.64 11.333 49.6069 11.5318 50.3689 11.9283C51.1294 12.3255 51.8603 12.9422 52.5605 13.7766L52.8689 11.6381H55.0299V33.9997H52.2521V24.7133C52.0048 25.0392 51.6851 25.3395 51.295 25.6145C50.9037 25.8894 50.4919 26.1237 50.0598 26.3169C49.6278 26.5107 49.1902 26.6577 48.7477 26.7595C48.3052 26.8613 47.8884 26.9129 47.4973 26.9129Z" fill="white"/>
<path d="M61.4622 26.209H58.6035V11.334L61.4622 13.904V26.209Z" fill="white"/>
<path d="M69.7059 26.805C67.4738 26.805 65.7212 26.3605 64.4487 25.4713L64.7931 22.7724C65.2098 23.1445 65.8513 23.4971 66.7175 23.827C67.5829 24.1578 68.5378 24.3233 69.5814 24.3233C71.6254 24.3233 72.648 23.6932 72.648 22.4312C72.648 21.2945 71.6254 20.457 69.5814 19.9187C68.9554 19.7743 68.3651 19.6041 67.8132 19.4073C67.2597 19.2112 66.7648 18.953 66.326 18.6318C65.8879 18.3116 65.5282 17.9033 65.2466 17.4063C64.9649 16.91 64.8029 16.2904 64.7613 15.5458C64.7613 14.2428 65.231 13.1575 66.1696 12.2886C67.1091 11.4205 68.5588 10.9863 70.52 10.9863C71.9178 10.9863 73.3049 11.3171 74.6823 11.9788L74.338 14.5219C73.2528 13.6125 72.0007 13.1575 70.5826 13.1575C68.6005 13.1575 67.6098 13.845 67.6098 15.2198C67.6098 15.5531 67.661 15.8337 67.766 16.0629C67.8702 16.2928 68.0574 16.4954 68.3293 16.6721C68.6005 16.8496 68.9652 17.0214 69.4243 17.1885C69.8833 17.3546 70.4678 17.541 71.1769 17.7475C71.6149 17.8719 72.0895 18.0429 72.6007 18.2599C73.1119 18.477 73.5865 18.761 74.0244 19.1127C74.4632 19.4645 74.828 19.8987 75.1201 20.415C75.4125 20.9321 75.5582 21.5526 75.5582 22.2764C75.5582 22.7724 75.4744 23.2897 75.3082 23.827C75.1406 24.3653 74.8385 24.8509 74.4006 25.2849C73.9625 25.7191 73.3626 26.0813 72.6007 26.3701C71.8388 26.6599 70.874 26.805 69.7059 26.805Z" fill="white"/>
<path d="M85.0704 26.805C83.8388 26.805 82.7545 26.6034 81.8158 26.1999C80.8772 25.7966 80.0787 25.2382 79.4216 24.5249C78.7647 23.8118 78.2689 22.9743 77.9353 22.0125C77.6015 21.0516 77.4346 20.0018 77.4346 18.8642C77.4346 17.7065 77.6015 16.647 77.9353 15.6854C78.2689 14.7236 78.7533 13.8917 79.3907 13.1882C80.0266 12.4855 80.8194 11.9433 81.7687 11.5601C82.7178 11.1776 83.8078 10.9863 85.0388 10.9863C87.0835 10.9863 88.6587 11.2865 89.7644 11.8861L89.3263 14.3985C88.0328 13.7779 86.7083 13.4674 85.3521 13.4674C83.6621 13.4674 82.3995 13.9329 81.565 14.8632C80.7307 15.7934 80.3139 17.1271 80.3139 18.8642C80.3139 20.6014 80.7307 21.9504 81.565 22.912C82.3995 23.8738 83.6621 24.3547 85.3521 24.3547C86.7287 24.3547 88.0637 24.0441 89.358 23.4237L89.7334 25.657C88.5856 26.4225 87.0316 26.805 85.0704 26.805Z" fill="white"/>
<path d="M105.057 26.6042H102.529L102.212 24.9212C101.243 26.2516 99.8106 26.9162 97.9138 26.9162C94.0996 26.9162 92.1929 24.6829 92.1929 20.215V11.333H95.0377V19.4358C95.0377 22.7606 96.2389 24.4225 98.6405 24.4225C100.284 24.4225 101.475 23.8413 102.212 22.6771V11.333L105.057 14.079V26.6042Z" fill="white"/>
<path d="M113.267 26.805C111.034 26.805 109.282 26.3605 108.009 25.4713L108.354 22.7724C108.771 23.1445 109.412 23.4971 110.278 23.827C111.144 24.1578 112.099 24.3233 113.142 24.3233C115.186 24.3233 116.209 23.6932 116.209 22.4312C116.209 21.2945 115.186 20.457 113.142 19.9187C112.516 19.7743 111.926 19.6041 111.374 19.4073C110.82 19.2112 110.325 18.953 109.887 18.6318C109.449 18.3116 109.089 17.9033 108.807 17.4063C108.526 16.91 108.364 16.2904 108.322 15.5458C108.322 14.2428 108.792 13.1575 109.73 12.2886C110.67 11.4205 112.12 10.9863 114.081 10.9863C115.478 10.9863 116.866 11.3171 118.243 11.9788L117.899 14.5219C116.813 13.6125 115.561 13.1575 114.143 13.1575C112.161 13.1575 111.17 13.845 111.17 15.2198C111.17 15.5531 111.222 15.8337 111.327 16.0629C111.431 16.2928 111.618 16.4954 111.89 16.6721C112.161 16.8496 112.526 17.0214 112.985 17.1885C113.444 17.3546 114.029 17.541 114.738 17.7475C115.176 17.8719 115.65 18.0429 116.161 18.2599C116.673 18.477 117.147 18.761 117.585 19.1127C118.024 19.4645 118.389 19.8987 118.681 20.415C118.973 20.9321 119.119 21.5526 119.119 22.2764C119.119 22.7724 119.035 23.2897 118.869 23.827C118.701 24.3653 118.399 24.8509 117.961 25.2849C117.523 25.7191 116.923 26.0813 116.161 26.3701C115.4 26.6599 114.435 26.805 113.267 26.805Z" fill="white"/>
<path d="M9.16836 0C4.12564 0 0 4.1428 0 9.20608V22.9259C0 27.9892 4.12564 32.132 9.16836 32.132H22.8318C23.8301 32.132 25.0358 32.1807 25.416 32.2116C25.9909 32.2042 28.9981 32.4758 30.1627 33.9037C30.7216 34.5889 31.7509 31.4343 31.0319 30.2156L30.0965 28.4674C31.2728 26.9192 32 25.012 32 22.9259V9.20608C32 4.1428 27.8744 0 22.8318 0H9.16836ZM4.2834 20.759V11.3221C4.2834 7.44646 7.44136 4.27571 11.3012 4.27571H20.699C24.5586 4.27571 27.7168 7.44646 27.7168 11.3221V20.3402C27.7159 20.4746 27.7112 20.6974 27.6942 20.9792C27.6851 21.27 27.6517 21.5542 27.6078 21.8355C27.5859 21.9976 27.5079 22.6897 27.2633 23.1805C26.1765 22.7896 23.5607 23.6351 23.9869 23.8546C25.5831 24.6764 27.4248 28.827 27.4248 28.827C26.0741 27.7997 22.2688 27.8053 20.699 27.8053H11.3012C7.44136 27.8053 4.2834 24.6347 4.2834 20.759Z" fill="white"/>
</g>
<defs>
<clipPath id="clip0">
<rect width="120" height="34" fill="white"/>
</clipPath>
</defs>
</svg>
